# xmcd
#
# Track frame offsets: 
#        150
#        15497
#        30717
#        48392
#        61887
#        77505
#        92612
#        107395
#        118147
#        131115
#        150200
#
# Disc length: 2100 seconds
#
# Revision: 2
# Processed by: cddbd v1.4PL0 Copyright (c) Steve Scherf et al.
# Submitted via: ExactAudioCopy v0.90a11
#
DISCID=7908320b
DTITLE=Willie Nelson - The Promiseland
DYEAR=1900
DGENRE=
TTITLE0=Living In The Promiseland
TTITLE1=I'm Not Trying To Forget You
TTITLE2=Here In My Heart
TTITLE3=I've Got The Craziest Feeling
TTITLE4=No Place But Texas
TTITLE5=You're Only In My Arms (To Cry On My Shoulder)
TTITLE6=Pass It On
TTITLE7=Do You Ever Think Of Me
TTITLE8=Old Fashioned Love
TTITLE9=Basin Street Blues
TTITLE10=Bach Minuet In G
EXTD=
EXTT0=
EXTT1=
EXTT2=
EXTT3=
EXTT4=
EXTT5=
EXTT6=
EXTT7=
EXTT8=
EXTT9=
EXTT10=
PLAYORDER=
